<mxfile host="app.diagrams.net" modified="2024-05-13T19:16:31.246Z" agent="Mozilla/5.0 (Windows NT 10.0; Win64; x64) AppleWebKit/537.36 (KHTML, like Gecko) Chrome/123.0.0.0 Safari/537.36 OPR/109.0.0.0 (Edition Yx GX)" etag="sKTBuwsnhCO-lorIlajL" version="24.4.0" type="github">
  <diagram id="C5RBs43oDa-KdzZeNtuy" name="Page-1">
    <mxGraphModel dx="1393" dy="766" grid="1" gridSize="10" guides="1" tooltips="1" connect="1" arrows="1" fold="1" page="1" pageScale="1" pageWidth="827" pageHeight="1169" math="0" shadow="0">
      <root>
        <mxCell id="WIyWlLk6GJQsqaUBKTNV-0" />
        <mxCell id="WIyWlLk6GJQsqaUBKTNV-1" parent="WIyWlLk6GJQsqaUBKTNV-0" />
        <mxCell id="lx_JSRr0nuFjOh9yEM80-1" style="edgeStyle=orthogonalEdgeStyle;rounded=0;orthogonalLoop=1;jettySize=auto;html=1;" edge="1" parent="WIyWlLk6GJQsqaUBKTNV-1" source="WIyWlLk6GJQsqaUBKTNV-3" target="lx_JSRr0nuFjOh9yEM80-0">
          <mxGeometry relative="1" as="geometry" />
        </mxCell>
        <mxCell id="WIyWlLk6GJQsqaUBKTNV-3" value="def perform_actions(self):" style="rounded=1;whiteSpace=wrap;html=1;fontSize=12;glass=0;strokeWidth=1;shadow=0;" parent="WIyWlLk6GJQsqaUBKTNV-1" vertex="1">
          <mxGeometry x="145" y="50" width="150" height="50" as="geometry" />
        </mxCell>
        <mxCell id="lx_JSRr0nuFjOh9yEM80-3" style="edgeStyle=orthogonalEdgeStyle;rounded=0;orthogonalLoop=1;jettySize=auto;html=1;entryX=0.5;entryY=0;entryDx=0;entryDy=0;" edge="1" parent="WIyWlLk6GJQsqaUBKTNV-1" source="lx_JSRr0nuFjOh9yEM80-0" target="lx_JSRr0nuFjOh9yEM80-2">
          <mxGeometry relative="1" as="geometry" />
        </mxCell>
        <mxCell id="lx_JSRr0nuFjOh9yEM80-0" value="print(&quot;Робот совершает случайные действия&quot;)" style="rounded=1;whiteSpace=wrap;html=1;fontSize=12;glass=0;strokeWidth=1;shadow=0;" vertex="1" parent="WIyWlLk6GJQsqaUBKTNV-1">
          <mxGeometry x="145" y="150" width="150" height="50" as="geometry" />
        </mxCell>
        <mxCell id="lx_JSRr0nuFjOh9yEM80-5" style="edgeStyle=orthogonalEdgeStyle;rounded=0;orthogonalLoop=1;jettySize=auto;html=1;" edge="1" parent="WIyWlLk6GJQsqaUBKTNV-1" source="lx_JSRr0nuFjOh9yEM80-2" target="lx_JSRr0nuFjOh9yEM80-4">
          <mxGeometry relative="1" as="geometry" />
        </mxCell>
        <mxCell id="lx_JSRr0nuFjOh9yEM80-2" value="def freeze(self):" style="rounded=1;whiteSpace=wrap;html=1;fontSize=12;glass=0;strokeWidth=1;shadow=0;" vertex="1" parent="WIyWlLk6GJQsqaUBKTNV-1">
          <mxGeometry x="145" y="260" width="150" height="50" as="geometry" />
        </mxCell>
        <mxCell id="lx_JSRr0nuFjOh9yEM80-7" style="edgeStyle=orthogonalEdgeStyle;rounded=0;orthogonalLoop=1;jettySize=auto;html=1;entryX=0.5;entryY=0;entryDx=0;entryDy=0;" edge="1" parent="WIyWlLk6GJQsqaUBKTNV-1" source="lx_JSRr0nuFjOh9yEM80-4" target="lx_JSRr0nuFjOh9yEM80-6">
          <mxGeometry relative="1" as="geometry" />
        </mxCell>
        <mxCell id="lx_JSRr0nuFjOh9yEM80-4" value="print(&quot;Робот бездействует&quot;)" style="rounded=1;whiteSpace=wrap;html=1;fontSize=12;glass=0;strokeWidth=1;shadow=0;" vertex="1" parent="WIyWlLk6GJQsqaUBKTNV-1">
          <mxGeometry x="145" y="370" width="150" height="50" as="geometry" />
        </mxCell>
        <mxCell id="lx_JSRr0nuFjOh9yEM80-9" style="edgeStyle=orthogonalEdgeStyle;rounded=0;orthogonalLoop=1;jettySize=auto;html=1;" edge="1" parent="WIyWlLk6GJQsqaUBKTNV-1" source="lx_JSRr0nuFjOh9yEM80-6" target="lx_JSRr0nuFjOh9yEM80-8">
          <mxGeometry relative="1" as="geometry" />
        </mxCell>
        <mxCell id="lx_JSRr0nuFjOh9yEM80-6" value="robot = Robot()" style="rounded=1;whiteSpace=wrap;html=1;fontSize=12;glass=0;strokeWidth=1;shadow=0;" vertex="1" parent="WIyWlLk6GJQsqaUBKTNV-1">
          <mxGeometry x="145" y="490" width="150" height="50" as="geometry" />
        </mxCell>
        <mxCell id="lx_JSRr0nuFjOh9yEM80-8" value="robot.perform_actions()&lt;div&gt;robot.perform_actions()&lt;br&gt;&lt;/div&gt;&lt;div&gt;robot.freeze()&lt;br&gt;&lt;/div&gt;" style="rounded=1;whiteSpace=wrap;html=1;fontSize=12;glass=0;strokeWidth=1;shadow=0;" vertex="1" parent="WIyWlLk6GJQsqaUBKTNV-1">
          <mxGeometry x="130" y="600" width="180" height="60" as="geometry" />
        </mxCell>
        <mxCell id="lx_JSRr0nuFjOh9yEM80-12" value="" style="edgeStyle=elbowEdgeStyle;elbow=horizontal;endArrow=classic;html=1;curved=0;rounded=0;endSize=8;startSize=8;entryX=1;entryY=0.5;entryDx=0;entryDy=0;" edge="1" parent="WIyWlLk6GJQsqaUBKTNV-1" target="WIyWlLk6GJQsqaUBKTNV-3">
          <mxGeometry width="50" height="50" relative="1" as="geometry">
            <mxPoint x="295" y="180" as="sourcePoint" />
            <mxPoint x="340" y="70" as="targetPoint" />
            <Array as="points">
              <mxPoint x="400" y="160" />
            </Array>
          </mxGeometry>
        </mxCell>
        <mxCell id="lx_JSRr0nuFjOh9yEM80-13" value="No" style="text;html=1;align=center;verticalAlign=middle;whiteSpace=wrap;rounded=0;" vertex="1" parent="WIyWlLk6GJQsqaUBKTNV-1">
          <mxGeometry x="320" y="140" width="60" height="30" as="geometry" />
        </mxCell>
        <mxCell id="lx_JSRr0nuFjOh9yEM80-14" value="" style="edgeStyle=elbowEdgeStyle;elbow=horizontal;endArrow=classic;html=1;curved=0;rounded=0;endSize=8;startSize=8;entryX=1;entryY=0.5;entryDx=0;entryDy=0;" edge="1" parent="WIyWlLk6GJQsqaUBKTNV-1" target="lx_JSRr0nuFjOh9yEM80-2">
          <mxGeometry width="50" height="50" relative="1" as="geometry">
            <mxPoint x="295" y="395" as="sourcePoint" />
            <mxPoint x="295" y="290" as="targetPoint" />
            <Array as="points">
              <mxPoint x="400" y="375" />
            </Array>
          </mxGeometry>
        </mxCell>
        <mxCell id="lx_JSRr0nuFjOh9yEM80-16" value="No" style="text;html=1;align=center;verticalAlign=middle;whiteSpace=wrap;rounded=0;" vertex="1" parent="WIyWlLk6GJQsqaUBKTNV-1">
          <mxGeometry x="320" y="360" width="60" height="30" as="geometry" />
        </mxCell>
      </root>
    </mxGraphModel>
  </diagram>
</mxfile>
